<svg width="44" height="50" viewBox="0 0 44 50" fill="none" xmlns="http://www.w3.org/2000/svg">
<g clip-path="url(#clip0_3850_113)">
<path fill-rule="evenodd" clip-rule="evenodd" d="M24.9246 17.9848C26.1646 17.1293 27.7235 15.9079 29.2328 14.3236C29.6972 15.0171 29.829 15.6612 29.7189 16.2121C29.6406 16.6004 29.4397 16.9571 29.1518 17.2591C28.8399 17.5855 28.4299 17.8493 27.9605 18.0271C27.07 18.3653 25.9785 18.3971 24.9246 17.9848ZM26.1265 24.7709L28.0386 25.54C24.7188 28.0753 24.2724 31.9693 23.6279 35.7919C21.9426 32.3009 20.4275 28.6861 16.5324 27.1776L18.1539 25.9056C18.3156 25.8167 18.4451 25.6788 18.5237 25.5119C18.6023 25.3449 18.626 25.1573 18.5914 24.976C17.9421 21.5744 18.6513 19.9283 19.7633 18.7999C20.1622 18.3956 20.6262 18.1551 21.1081 18.0865C21.5899 18.0179 22.1026 18.1194 22.5986 18.3964C23.9813 19.1697 25.1215 20.5526 25.447 24.0003C25.4644 24.184 25.5395 24.3575 25.6616 24.496C25.7837 24.6344 25.9464 24.7306 26.1265 24.7709ZM18.9576 2.97658C21.0077 2.74075 23.1115 2.84584 24.9981 3.36423C26.3046 3.72389 27.5532 4.2669 28.7131 4.96365C29.2368 5.27818 29.6758 5.59156 30.162 5.95506C31.3162 5.8313 32.8132 4.31647 33.4225 3.01164C32.7071 7.59916 27.3263 13.6622 23.3722 16.2519C23.3703 16.2514 23.369 16.2506 23.3676 16.2499C22.5246 15.7775 21.6281 15.6089 20.7728 15.7306C19.9174 15.8524 19.1037 16.2644 18.426 16.9532C18.4248 16.9541 18.4238 16.9556 18.4221 16.9564C13.9024 15.5727 7.04382 11.2516 5.07698 7.04581C6.02602 8.12884 7.88614 9.1659 9.02902 8.96273C9.39468 8.47814 9.72881 8.05458 10.1439 7.60644C11.0633 6.61377 12.1108 5.74397 13.2651 5.03407C14.9323 4.0099 16.9233 3.32205 18.9576 2.97658ZM17.4147 19.0536C15.9854 18.578 14.1475 17.84 12.2563 16.7397C12.0037 17.5353 12.0569 18.1905 12.3162 18.6889C12.4998 19.0399 12.7922 19.3264 13.1528 19.5361C13.5436 19.7625 14.0109 19.9014 14.5113 19.9412C15.4608 20.0175 16.5177 19.7436 17.4147 19.0536Z" fill="white"/>
<path fill-rule="evenodd" clip-rule="evenodd" d="M30.8496 12.4089C31.6512 11.331 32.3272 10.1681 32.8576 9.14071L33.2846 9.72674C34.6778 11.7419 35.5488 13.8225 35.8949 16.2543L36.4417 20.1134L36.7468 22.1109C37.5243 27.0107 39.294 31.8281 42.3482 36.0326L36.734 32.6884L33.9936 38.9781L29.7484 35.9867L25.1478 46.5461L17.784 37.6896L14.542 41.7466L10.1556 36.4712L5.6973 41.2489C7.4572 36.3593 7.81263 31.2394 7.19239 26.3173L6.92805 24.314L6.37654 20.4555C6.03043 18.0236 6.28619 15.7827 7.06213 13.4589L7.3086 12.777C8.10459 13.6156 9.07802 14.5437 10.1487 15.3552L9.94276 16.004C9.54267 17.2642 9.54229 18.6097 10.1632 19.8009C10.5634 20.5681 11.1825 21.1867 11.9288 21.62C12.6535 22.0408 13.4739 22.2772 14.3071 22.3441C14.8498 22.3877 15.3926 22.3601 15.9225 22.2678C15.8985 22.9895 15.9482 23.7275 16.0506 24.4721L11.6905 27.8921L15.6489 29.4253C15.9653 29.5478 16.271 29.6963 16.5629 29.8693C19.9715 32.1527 22.9312 39.922 24.738 43.6655C25.4288 39.5665 26.1033 31.2801 28.7396 28.1363C28.9717 27.8887 29.2238 27.6608 29.4935 27.4549L32.867 24.8782L27.7257 22.8105C27.6163 22.0669 27.4581 21.3444 27.2337 20.658C27.7684 20.5988 28.2972 20.4738 28.8063 20.2806C29.5877 19.9839 30.3097 19.528 30.8881 18.9217C31.4837 18.2974 31.9058 17.5306 32.0759 16.6822C32.34 15.3651 31.9641 14.0733 31.2285 12.9746L30.8496 12.4089Z" fill="white"/>
</g>
<defs>
<clipPath id="clip0_3850_113">
<rect width="37.0202" height="44.0717" fill="white" transform="translate(0.62085 5.58569) rotate(-8.1)"/>
</clipPath>
</defs>
</svg>
