<svg width="41" height="32" viewBox="0 0 41 32" fill="none" xmlns="http://www.w3.org/2000/svg">
<path d="M3.27964 11.1982C3.27964 11.1982 20.7679 5.76237 26.8162 3.88516C29.1779 3.20569 37.0695 0.729607 37.0695 0.729607C37.0695 0.729607 40.7446 -0.341418 40.0646 2.91874C39.811 4.30115 38.624 8.92065 37.3908 14.047C35.5814 21.2931 33.5876 29.1612 33.5876 29.1612C33.5876 29.1612 33.1266 31.4191 31.4446 31.6494C29.7627 31.8796 27.1362 29.8518 26.7907 29.4371C26.4336 29.149 19.8675 24.0795 17.5292 21.6945C16.9532 21.0033 16.17 19.7821 17.9442 18.538C21.7807 15.6929 26.3316 12.0184 29.0966 9.71462C30.3409 8.67792 31.7351 5.99384 26.6199 8.85036C19.212 13.0315 12.0921 16.8555 12.0921 16.8555C12.0921 16.8555 10.4792 17.7309 7.64529 16.5786C4.81142 15.4263 1.49373 13.9744 1.49373 13.9744C1.49373 13.9744 -0.787116 12.3614 3.27964 11.1982Z" fill="white"/>
</svg>
